<svg width="139" height="32" viewBox="0 0 139 32" fill="none" xmlns="http://www.w3.org/2000/svg">
<g id="Group">
<path id="Vector" d="M117.379 25.0772C117.379 28.8243 114.265 31.2724 110.41 31.2724H103.629C102.366 31.2724 101.343 30.2697 101.343 29.0324V12.3562C101.343 11.1189 102.366 10.1162 103.629 10.1162H109.794C113.556 10.1162 116.61 12.5038 116.61 16.1602C116.61 17.9133 115.901 19.3032 114.728 20.3008C116.332 21.2984 117.381 22.9305 117.381 25.0759L117.379 25.0772ZM106.277 14.6504V18.3976H109.761C110.783 18.3976 111.638 17.6093 111.673 16.6079C111.711 15.4765 110.964 14.6491 109.792 14.6491H106.276L106.277 14.6504ZM112.445 24.7139C112.445 23.5347 111.643 22.6896 110.41 22.6896H106.277V26.7395H110.41C111.643 26.7395 112.445 25.8932 112.445 24.7152V24.7139Z" fill="white"/>
<path id="Vector_2" d="M119.228 0.940532C114.175 0.948099 109.689 3.32306 106.862 6.9933C106.621 7.30482 106.851 7.75128 107.25 7.75128H109.792C112.236 7.75128 114.512 8.5446 116.198 9.98494C118.019 11.5413 119.023 13.7347 119.023 16.1613C119.023 17.4793 118.732 18.7002 118.167 19.7823C118.085 19.94 118.101 20.1305 118.21 20.273C118.409 20.5341 118.59 20.8078 118.757 21.0928C119.445 22.2847 119.794 23.6254 119.794 25.0758C119.794 27.1367 119.083 29.0298 117.776 30.5193C117.516 30.8145 117.702 31.2761 118.1 31.3051C118.481 31.3328 118.866 31.3467 119.253 31.3467C122.524 31.3467 125.559 30.3542 128.061 28.6603C128.287 28.5064 128.331 28.2012 128.169 27.983C127.909 27.6324 127.754 27.2023 127.754 26.7356C127.754 25.9234 128.219 25.2196 128.902 24.8627C129.117 24.7504 129.205 24.4931 129.12 24.2686C129.009 23.9747 128.963 23.6493 129 23.3113C129.107 22.3162 129.933 21.5153 130.95 21.4233C131.314 21.3905 131.662 21.4459 131.973 21.5695C132.191 21.6566 132.435 21.5696 132.563 21.3766C132.846 20.9478 133.3 20.64 133.832 20.5441C134.012 20.5114 134.159 20.3827 134.207 20.2099C134.619 18.7532 134.816 17.2081 134.761 15.6101C134.475 7.44732 127.565 0.925394 119.231 0.938007L119.228 0.940532ZM119.4 6.4686C118.971 6.39418 118.518 6.26301 118.45 5.8405C118.378 5.39401 118.813 5.15815 119.239 5.0686C119.72 4.9677 120.059 5.32468 120.059 5.75225C120.059 6.17981 119.773 6.53292 119.399 6.4686H119.4ZM124.1 26.1491C123.727 26.1491 123.31 26.0747 123.54 25.5425C123.636 25.323 123.86 25.1716 124.103 25.1855C124.405 25.2019 124.678 25.3836 124.641 25.6989C124.61 25.9612 124.369 26.1504 124.1 26.1504V26.1491ZM122.969 18.6712C121.947 18.6712 121.297 18.091 121.095 17.0606C120.901 16.078 121.78 15.035 122.802 15.035C123.824 15.035 124.879 15.4991 124.879 16.5006C124.879 17.502 123.991 18.6712 122.97 18.6712H122.969ZM129.176 9.81472C128.574 9.81472 127.869 9.17401 127.869 8.58501C127.869 7.996 128.571 7.68319 129.174 7.68193C129.588 7.68193 129.95 7.96696 130.063 8.35794C130.332 9.28118 129.942 9.81596 129.176 9.81596V9.81472ZM131.926 15.1145C131.859 15.6795 131.57 16.1436 130.989 16.1436C130.407 16.1436 129.698 15.8788 129.698 15.31C129.698 14.7411 130.407 14.084 130.989 14.084C131.57 14.084 131.995 14.5179 131.926 15.1145Z" fill="white"/>
<g id="Group_2">
<path id="Vector_3" d="M132.726 27.3727C132.709 28.1307 132.099 28.3488 131.324 28.3488C130.55 28.3488 129.923 28.1319 129.923 27.3727C129.923 26.6134 130.803 25.8667 131.561 25.7128C132.33 25.5564 132.748 26.4595 132.726 27.3727Z" fill="white"/>
<path id="Vector_4" d="M136.093 25.1578C136.093 25.6711 135.887 26.0495 135.363 26.0495C134.839 26.0495 134.278 25.3886 134.278 24.8752C134.278 24.3619 134.839 24.2673 135.363 24.2673C135.887 24.2673 136.093 24.6457 136.093 25.159V25.1578Z" fill="white"/>
<path id="Vector_5" d="M138.102 28.6501C138.102 29.0436 137.95 29.5985 137.549 29.5985C137.147 29.5985 136.528 29.1129 136.528 28.7194C136.528 28.3259 136.973 28.1506 137.375 28.1506C137.776 28.1506 138.102 28.2565 138.102 28.6513V28.6501Z" fill="white"/>
<path id="Vector_6" d="M134.289 27.8246C134.346 27.6907 134.635 27.4836 134.77 27.5404C134.906 27.5973 134.964 27.8069 134.906 27.9396C134.848 28.0735 134.69 28.1354 134.554 28.0773C134.417 28.0192 134.229 27.956 134.287 27.8233L134.289 27.8246Z" fill="white"/>
<path id="Vector_7" d="M133.377 29.1444C133.425 29.0347 133.61 29.1104 133.722 29.1571C133.834 29.2037 133.886 29.297 133.838 29.4055C133.79 29.5152 133.622 29.5317 133.511 29.485C133.401 29.4383 133.331 29.2529 133.379 29.1432L133.377 29.1444Z" fill="white"/>
<path id="Vector_8" d="M138.572 27.3422C138.619 27.2325 138.825 27.1796 138.936 27.2262C139.047 27.2729 138.99 27.3788 138.942 27.4886C138.895 27.5983 138.815 27.6891 138.704 27.6424C138.592 27.5957 138.524 27.452 138.572 27.3435V27.3422Z" fill="white"/>
</g>
<path id="Vector_9" d="M16.0366 25.0772C16.0366 28.8243 12.922 31.2724 9.06727 31.2724H2.28585C1.02326 31.2724 6.10352e-05 30.2697 6.10352e-05 29.0324V12.3562C6.10352e-05 11.1189 1.02326 10.1162 2.28585 10.1162H8.45077C12.2128 10.1162 15.2669 12.5038 15.2669 16.1602C15.2669 17.9133 14.5578 19.3032 13.3853 20.3008C14.9889 21.2984 16.0379 22.9305 16.0379 25.0759L16.0366 25.0772ZM4.93457 14.6504V18.3976H8.41859C9.4405 18.3976 10.2951 17.6093 10.3298 16.6079C10.3697 15.4765 9.62069 14.6491 8.44948 14.6491H4.9333L4.93457 14.6504ZM11.1021 24.7139C11.1021 23.5347 10.3003 22.6896 9.06598 22.6896H4.9333V26.7395H9.06598C10.299 26.7395 11.1021 25.8932 11.1021 24.7152V24.7139Z" fill="white"/>
<path id="Vector_10" d="M16.962 20.6942C16.962 14.4687 21.9892 9.6936 28.1875 9.6936C34.3859 9.6936 39.4131 14.4687 39.4131 20.6942C39.4131 26.9197 34.3859 31.6948 28.1875 31.6948C21.9892 31.6948 16.962 26.9197 16.962 20.6942ZM34.4786 20.6942C34.4786 16.9167 31.7024 14.4081 28.1875 14.4081C24.6726 14.4081 21.8965 16.9167 21.8965 20.6942C21.8965 24.4716 24.6726 26.9802 28.1875 26.9802C31.7024 26.9802 34.4786 24.4716 34.4786 20.6942Z" fill="white"/>
<path id="Vector_11" d="M38.7979 28.8963C38.7979 27.8608 39.529 26.9855 40.5496 26.7181C41.7105 26.4141 42.3746 25.3458 42.3746 22.87V12.3562C42.3746 11.1189 43.3978 10.1162 44.6604 10.1162H55.0159C56.2785 10.1162 57.3017 11.1189 57.3017 12.3562V29.0324C57.3017 30.2697 56.2785 31.2724 55.0159 31.2724H54.653C53.3904 31.2724 52.3672 30.2697 52.3672 29.0324V14.7715H47.3091V22.6896C47.3091 28.5948 44.5394 30.7704 41.4299 31.2371C40.0451 31.4452 38.7966 30.3946 38.7966 29.0224V28.8963H38.7979Z" fill="white"/>
<path id="Vector_12" d="M71.073 30.1624L68.0961 25.1679L65.1191 30.1624C64.7099 30.8498 63.9582 31.2724 63.1461 31.2724H62.8205C61.0572 31.2724 59.9581 29.3994 60.8449 27.9061L65.2903 20.4231L61.1589 13.4862C60.2696 11.9929 61.3687 10.1174 63.1332 10.1174H63.4537C64.2658 10.1174 65.0175 10.5399 65.428 11.2273L68.0973 15.7073L70.7667 11.2273C71.1759 10.5399 71.9276 10.1174 72.741 10.1174H73.0615C74.826 10.1174 75.9251 11.9929 75.0358 13.4862L70.9044 20.4231L75.3498 27.9061C76.2366 29.3994 75.1375 31.2724 73.3742 31.2724H73.0486C72.2365 31.2724 71.4848 30.8498 71.0756 30.1624H71.073Z" fill="white"/>
<path id="Vector_13" d="M76.7321 20.6942C76.7321 14.4687 81.7593 9.6936 87.9577 9.6936C94.1561 9.6936 99.1832 14.4687 99.1832 20.6942C99.1832 26.9197 94.1561 31.6948 87.9577 31.6948C81.7593 31.6948 76.7321 26.9197 76.7321 20.6942ZM94.2487 20.6942C94.2487 16.9167 91.4726 14.4081 87.9577 14.4081C84.4428 14.4081 81.6666 16.9167 81.6666 20.6942C81.6666 24.4716 84.4428 26.9802 87.9577 26.9802C91.4726 26.9802 94.2487 24.4716 94.2487 20.6942Z" fill="white"/>
</g>
</svg>
